<?xml version="1.0" encoding="utf-8"?><!-- Uploaded to: SVG Repo, www.svgrepo.com, Generator: SVG Repo Mixer Tools -->
<svg fill="#000000" width="800px" height="800px" viewBox="0 0 24 24" id="avocado-4" data-name="Flat Color" xmlns="http://www.w3.org/2000/svg" class="icon flat-color"><path id="primary" d="M18.38,11.73c-.16-.43-.33-.82-.52-1.24a9.5,9.5,0,0,1-1-3.38,5.38,5.38,0,0,0-2.32-4.36,4.78,4.78,0,0,0-5.08,0A5.38,5.38,0,0,0,7.14,7.11a9.5,9.5,0,0,1-1,3.38c-.19.42-.36.81-.52,1.24A10.29,10.29,0,0,0,5,15.67C5,19.16,8.14,22,12,22s7-2.84,7-6.33A10.29,10.29,0,0,0,18.38,11.73Z" style="fill: rgb(0, 0, 0);"></path><circle id="secondary" cx="12" cy="15" r="3" style="fill: rgb(44, 169, 188);"></circle></svg>